<?xml version="1.0" standalone="no"?>
<svg xmlns="http://www.w3.org/2000/svg" xmlns:xlink="http://www.w3.org/1999/xlink" width="332pt" height="206pt" viewBox="0.00 0.00 332 206">
<g id="graph0" class="graph" transform="translate(106.9808515935425,162.55214035921335) scale(0.4043514361428903)" data-name="Network">

<polygon fill="white" stroke="none" points="-4,4 -4,-202 328,-202 328,4 -4,4"/>
<!-- be7fa3e6&#45;6649&#45;4b4f&#45;a572&#45;6dbf00d08659 -->
<g id="node1" class="node" pointer-events="visible" data-name="bd0afd82-fc30-4490-aa20-d4694e5a38b6" data-comment="be7fa3e6-6649-4b4f-a572-6dbf00d08659">

<ellipse fill="#fafad2" stroke="black" cx="27" cy="-153" rx="27" ry="18" style=""/>
<text text-anchor="middle" x="27" y="-148.8" font-family="Times,serif" font-size="14.00" style="">i</text>
</g>
<!-- 8de7e9be&#45;df7f&#45;426d&#45;992e&#45;36ccaad1a326 -->
<g id="node4" class="node" pointer-events="visible" data-name="c59f5c90-da62-4e22-a966-691a7fd42822" data-comment="8de7e9be-df7f-426d-992e-36ccaad1a326">

<ellipse fill="#e0ffff" stroke="black" cx="117" cy="-72" rx="27" ry="18" style=""/>
<text text-anchor="middle" x="117" y="-67.8" font-family="Times,serif" font-size="14.00" style="">H</text>
</g>
<!-- be7fa3e6&#45;6649&#45;4b4f&#45;a572&#45;6dbf00d08659&#45;&gt;8de7e9be&#45;df7f&#45;426d&#45;992e&#45;36ccaad1a326 -->
<g id="edge1" class="edge" data-name="bd0afd82-fc30-4490-aa20-d4694e5a38b6-&gt;c59f5c90-da62-4e22-a966-691a7fd42822" data-comment="be7fa3e6-6649-4b4f-a572-6dbf00d08659-&gt;8de7e9be-df7f-426d-992e-36ccaad1a326">

<path fill="none" stroke="black" d="M43.73,-138.52C57.25,-126.08 76.93,-107.96 92.35,-93.77" style=""/>
<polygon fill="black" stroke="black" points="94.3,-96.73 99.29,-87.38 89.56,-91.58 94.3,-96.73" style=""/>
</g>
<!-- 840f5a77&#45;bd21&#45;4bb1&#45;b3eb&#45;9d396ff65bf1 -->
<g id="node5" class="node" pointer-events="visible" data-name="07d04cef-ed5e-4580-a5a3-c129b03aedb4" data-comment="840f5a77-bd21-4bb1-b3eb-9d396ff65bf1">

<ellipse fill="#e0ffff" stroke="black" cx="117" cy="-18" rx="27" ry="18" style=""/>
<text text-anchor="middle" x="117" y="-13.8" font-family="Times,serif" font-size="14.00" style="">H</text>
</g>
<!-- be7fa3e6&#45;6649&#45;4b4f&#45;a572&#45;6dbf00d08659&#45;&gt;840f5a77&#45;bd21&#45;4bb1&#45;b3eb&#45;9d396ff65bf1 -->
<g id="edge4" class="edge" data-name="bd0afd82-fc30-4490-aa20-d4694e5a38b6-&gt;07d04cef-ed5e-4580-a5a3-c129b03aedb4" data-comment="be7fa3e6-6649-4b4f-a572-6dbf00d08659-&gt;840f5a77-bd21-4bb1-b3eb-9d396ff65bf1">

<path fill="none" stroke="black" d="M43.85,-138.39C47.46,-134.58 51.09,-130.32 54,-126 76,-93.32 68,-77.68 90,-45 90.91,-43.65 91.89,-42.31 92.91,-40.98" style=""/>
<polygon fill="black" stroke="black" points="95.27,-43.61 99.16,-33.76 89.97,-39.03 95.27,-43.61" style=""/>
</g>
<!-- 111d9544&#45;7190&#45;4d90&#45;8410&#45;fd29292fb03d -->
<g id="node6" class="node" pointer-events="visible" data-name="e928ba7b-d150-4501-affd-00cfdcc8adde" data-comment="111d9544-7190-4d90-8410-fd29292fb03d">

<ellipse fill="#e0ffff" stroke="black" cx="117" cy="-180" rx="27" ry="18" style=""/>
<text text-anchor="middle" x="117" y="-175.8" font-family="Times,serif" font-size="14.00" style="">H</text>
</g>
<!-- be7fa3e6&#45;6649&#45;4b4f&#45;a572&#45;6dbf00d08659&#45;&gt;111d9544&#45;7190&#45;4d90&#45;8410&#45;fd29292fb03d -->
<g id="edge7" class="edge" data-name="bd0afd82-fc30-4490-aa20-d4694e5a38b6-&gt;e928ba7b-d150-4501-affd-00cfdcc8adde" data-comment="be7fa3e6-6649-4b4f-a572-6dbf00d08659-&gt;111d9544-7190-4d90-8410-fd29292fb03d">

<path fill="none" stroke="black" d="M52.05,-160.38C60.97,-163.12 71.29,-166.28 80.99,-169.26" style=""/>
<polygon fill="black" stroke="black" points="79.95,-172.6 90.54,-172.19 82,-165.91 79.95,-172.6" style=""/>
</g>
<!-- 781be880&#45;34c1&#45;49ab&#45;87d7&#45;7c54f3f28438 -->
<g id="node7" class="node" pointer-events="visible" data-name="b0d93fa7-1a06-483e-b30e-107d5d60814c" data-comment="781be880-34c1-49ab-87d7-7c54f3f28438">

<ellipse fill="#e0ffff" stroke="black" cx="117" cy="-126" rx="27" ry="18" style=""/>
<text text-anchor="middle" x="117" y="-121.8" font-family="Times,serif" font-size="14.00" style="">H</text>
</g>
<!-- be7fa3e6&#45;6649&#45;4b4f&#45;a572&#45;6dbf00d08659&#45;&gt;781be880&#45;34c1&#45;49ab&#45;87d7&#45;7c54f3f28438 -->
<g id="edge10" class="edge" data-name="bd0afd82-fc30-4490-aa20-d4694e5a38b6-&gt;b0d93fa7-1a06-483e-b30e-107d5d60814c" data-comment="be7fa3e6-6649-4b4f-a572-6dbf00d08659-&gt;781be880-34c1-49ab-87d7-7c54f3f28438">

<path fill="none" stroke="black" d="M52.05,-145.62C60.97,-142.88 71.29,-139.72 80.99,-136.74" style=""/>
<polygon fill="black" stroke="black" points="82,-140.09 90.54,-133.81 79.95,-133.4 82,-140.09" style=""/>
</g>
<!-- 176cbe13&#45;6c5f&#45;4e53&#45;b474&#45;46cf43448953 -->
<g id="node2" class="node" pointer-events="visible" data-name="aefea072-506e-4c8d-bb3f-68f4f800b812" data-comment="176cbe13-6c5f-4e53-b474-46cf43448953">

<ellipse fill="#fafad2" stroke="black" cx="27" cy="-99" rx="27" ry="18" style=""/>
<text text-anchor="middle" x="27" y="-94.8" font-family="Times,serif" font-size="14.00" style="">i</text>
</g>
<!-- 176cbe13&#45;6c5f&#45;4e53&#45;b474&#45;46cf43448953&#45;&gt;8de7e9be&#45;df7f&#45;426d&#45;992e&#45;36ccaad1a326 -->
<g id="edge2" class="edge" data-name="aefea072-506e-4c8d-bb3f-68f4f800b812-&gt;c59f5c90-da62-4e22-a966-691a7fd42822" data-comment="176cbe13-6c5f-4e53-b474-46cf43448953-&gt;8de7e9be-df7f-426d-992e-36ccaad1a326">

<path fill="none" stroke="black" d="M52.05,-91.62C60.97,-88.88 71.29,-85.72 80.99,-82.74" style=""/>
<polygon fill="black" stroke="black" points="82,-86.09 90.54,-79.81 79.95,-79.4 82,-86.09" style=""/>
</g>
<!-- 176cbe13&#45;6c5f&#45;4e53&#45;b474&#45;46cf43448953&#45;&gt;840f5a77&#45;bd21&#45;4bb1&#45;b3eb&#45;9d396ff65bf1 -->
<g id="edge5" class="edge" data-name="aefea072-506e-4c8d-bb3f-68f4f800b812-&gt;07d04cef-ed5e-4580-a5a3-c129b03aedb4" data-comment="176cbe13-6c5f-4e53-b474-46cf43448953-&gt;840f5a77-bd21-4bb1-b3eb-9d396ff65bf1">

<path fill="none" stroke="black" d="M43.73,-84.52C57.25,-72.08 76.93,-53.96 92.35,-39.77" style=""/>
<polygon fill="black" stroke="black" points="94.3,-42.73 99.29,-33.38 89.56,-37.58 94.3,-42.73" style=""/>
</g>
<!-- 176cbe13&#45;6c5f&#45;4e53&#45;b474&#45;46cf43448953&#45;&gt;111d9544&#45;7190&#45;4d90&#45;8410&#45;fd29292fb03d -->
<g id="edge8" class="edge" data-name="aefea072-506e-4c8d-bb3f-68f4f800b812-&gt;e928ba7b-d150-4501-affd-00cfdcc8adde" data-comment="176cbe13-6c5f-4e53-b474-46cf43448953-&gt;111d9544-7190-4d90-8410-fd29292fb03d">

<path fill="none" stroke="black" d="M43.73,-113.48C57.25,-125.92 76.93,-144.04 92.35,-158.23" style=""/>
<polygon fill="black" stroke="black" points="89.56,-160.42 99.29,-164.62 94.3,-155.27 89.56,-160.42" style=""/>
</g>
<!-- 176cbe13&#45;6c5f&#45;4e53&#45;b474&#45;46cf43448953&#45;&gt;781be880&#45;34c1&#45;49ab&#45;87d7&#45;7c54f3f28438 -->
<g id="edge11" class="edge" data-name="aefea072-506e-4c8d-bb3f-68f4f800b812-&gt;b0d93fa7-1a06-483e-b30e-107d5d60814c" data-comment="176cbe13-6c5f-4e53-b474-46cf43448953-&gt;781be880-34c1-49ab-87d7-7c54f3f28438">

<path fill="none" stroke="black" d="M52.05,-106.38C60.97,-109.12 71.29,-112.28 80.99,-115.26" style=""/>
<polygon fill="black" stroke="black" points="79.95,-118.6 90.54,-118.19 82,-111.91 79.95,-118.6" style=""/>
</g>
<!-- f504e7a4&#45;eb21&#45;4001&#45;9998&#45;dd884d4c2d00 -->
<g id="node3" class="node" pointer-events="visible" data-name="6c397f63-482b-424b-aeb7-ccd911eb5e9e" data-comment="f504e7a4-eb21-4001-9998-dd884d4c2d00">

<ellipse fill="#fafad2" stroke="black" cx="27" cy="-45" rx="27" ry="18" style=""/>
<text text-anchor="middle" x="27" y="-40.8" font-family="Times,serif" font-size="14.00" style="">i</text>
</g>
<!-- f504e7a4&#45;eb21&#45;4001&#45;9998&#45;dd884d4c2d00&#45;&gt;8de7e9be&#45;df7f&#45;426d&#45;992e&#45;36ccaad1a326 -->
<g id="edge3" class="edge" data-name="6c397f63-482b-424b-aeb7-ccd911eb5e9e-&gt;c59f5c90-da62-4e22-a966-691a7fd42822" data-comment="f504e7a4-eb21-4001-9998-dd884d4c2d00-&gt;8de7e9be-df7f-426d-992e-36ccaad1a326">

<path fill="none" stroke="black" d="M52.05,-52.38C60.97,-55.12 71.29,-58.28 80.99,-61.26" style=""/>
<polygon fill="black" stroke="black" points="79.95,-64.6 90.54,-64.19 82,-57.91 79.95,-64.6" style=""/>
</g>
<!-- f504e7a4&#45;eb21&#45;4001&#45;9998&#45;dd884d4c2d00&#45;&gt;840f5a77&#45;bd21&#45;4bb1&#45;b3eb&#45;9d396ff65bf1 -->
<g id="edge6" class="edge" data-name="6c397f63-482b-424b-aeb7-ccd911eb5e9e-&gt;07d04cef-ed5e-4580-a5a3-c129b03aedb4" data-comment="f504e7a4-eb21-4001-9998-dd884d4c2d00-&gt;840f5a77-bd21-4bb1-b3eb-9d396ff65bf1">

<path fill="none" stroke="black" d="M52.05,-37.62C60.97,-34.88 71.29,-31.72 80.99,-28.74" style=""/>
<polygon fill="black" stroke="black" points="82,-32.09 90.54,-25.81 79.95,-25.4 82,-32.09" style=""/>
</g>
<!-- f504e7a4&#45;eb21&#45;4001&#45;9998&#45;dd884d4c2d00&#45;&gt;111d9544&#45;7190&#45;4d90&#45;8410&#45;fd29292fb03d -->
<g id="edge9" class="edge" data-name="6c397f63-482b-424b-aeb7-ccd911eb5e9e-&gt;e928ba7b-d150-4501-affd-00cfdcc8adde" data-comment="f504e7a4-eb21-4001-9998-dd884d4c2d00-&gt;111d9544-7190-4d90-8410-fd29292fb03d">

<path fill="none" stroke="black" d="M43.85,-59.61C47.46,-63.42 51.09,-67.68 54,-72 76,-104.68 68,-120.32 90,-153 90.91,-154.35 91.89,-155.69 92.91,-157.02" style=""/>
<polygon fill="black" stroke="black" points="89.97,-158.97 99.16,-164.24 95.27,-154.39 89.97,-158.97" style=""/>
</g>
<!-- f504e7a4&#45;eb21&#45;4001&#45;9998&#45;dd884d4c2d00&#45;&gt;781be880&#45;34c1&#45;49ab&#45;87d7&#45;7c54f3f28438 -->
<g id="edge12" class="edge" data-name="6c397f63-482b-424b-aeb7-ccd911eb5e9e-&gt;b0d93fa7-1a06-483e-b30e-107d5d60814c" data-comment="f504e7a4-eb21-4001-9998-dd884d4c2d00-&gt;781be880-34c1-49ab-87d7-7c54f3f28438">

<path fill="none" stroke="black" d="M43.73,-59.48C57.25,-71.92 76.93,-90.04 92.35,-104.23" style=""/>
<polygon fill="black" stroke="black" points="89.56,-106.42 99.29,-110.62 94.3,-101.27 89.56,-106.42" style=""/>
</g>
<!-- 068fc967&#45;28b1&#45;43a6&#45;8e89&#45;63a0c171be7c -->
<g id="node8" class="node" pointer-events="visible" data-name="a09287a9-3bd3-4ce1-b835-ab55a4712e2e" data-comment="068fc967-28b1-43a6-8e89-63a0c171be7c">

<ellipse fill="#e0ffff" stroke="black" cx="207" cy="-72" rx="27" ry="18" style=""/>
<text text-anchor="middle" x="207" y="-67.8" font-family="Times,serif" font-size="14.00" style="">H</text>
</g>
<!-- 8de7e9be&#45;df7f&#45;426d&#45;992e&#45;36ccaad1a326&#45;&gt;068fc967&#45;28b1&#45;43a6&#45;8e89&#45;63a0c171be7c -->
<g id="edge13" class="edge" data-name="c59f5c90-da62-4e22-a966-691a7fd42822-&gt;a09287a9-3bd3-4ce1-b835-ab55a4712e2e" data-comment="8de7e9be-df7f-426d-992e-36ccaad1a326-&gt;068fc967-28b1-43a6-8e89-63a0c171be7c">

<path fill="none" stroke="black" d="M144.4,-72C151.89,-72 160.18,-72 168.2,-72" style=""/>
<polygon fill="black" stroke="black" points="168.1,-75.5 178.1,-72 168.1,-68.5 168.1,-75.5" style=""/>
</g>
<!-- 78a33cdb&#45;7a5e&#45;445d&#45;8d32&#45;26c09202c141 -->
<g id="node9" class="node" pointer-events="visible" data-name="56da1a44-40a2-4546-926d-7badc1ff9b02" data-comment="78a33cdb-7a5e-445d-8d32-26c09202c141">

<ellipse fill="#e0ffff" stroke="black" cx="207" cy="-18" rx="27" ry="18" style=""/>
<text text-anchor="middle" x="207" y="-13.8" font-family="Times,serif" font-size="14.00" style="">H</text>
</g>
<!-- 8de7e9be&#45;df7f&#45;426d&#45;992e&#45;36ccaad1a326&#45;&gt;78a33cdb&#45;7a5e&#45;445d&#45;8d32&#45;26c09202c141 -->
<g id="edge17" class="edge" data-name="c59f5c90-da62-4e22-a966-691a7fd42822-&gt;56da1a44-40a2-4546-926d-7badc1ff9b02" data-comment="8de7e9be-df7f-426d-992e-36ccaad1a326-&gt;78a33cdb-7a5e-445d-8d32-26c09202c141">

<path fill="none" stroke="black" d="M137.53,-60.02C149.15,-52.88 164.11,-43.7 177.08,-35.75" style=""/>
<polygon fill="black" stroke="black" points="178.54,-38.96 185.23,-30.74 174.88,-32.99 178.54,-38.96" style=""/>
</g>
<!-- d752a61c&#45;6a12&#45;435c&#45;a54e&#45;28c07bbb62f5 -->
<g id="node10" class="node" pointer-events="visible" data-name="7530e41d-92be-40aa-984c-9c674b378575" data-comment="d752a61c-6a12-435c-a54e-28c07bbb62f5">

<ellipse fill="#e0ffff" stroke="black" cx="207" cy="-180" rx="27" ry="18" style=""/>
<text text-anchor="middle" x="207" y="-175.8" font-family="Times,serif" font-size="14.00" style="">H</text>
</g>
<!-- 8de7e9be&#45;df7f&#45;426d&#45;992e&#45;36ccaad1a326&#45;&gt;d752a61c&#45;6a12&#45;435c&#45;a54e&#45;28c07bbb62f5 -->
<g id="edge21" class="edge" data-name="c59f5c90-da62-4e22-a966-691a7fd42822-&gt;7530e41d-92be-40aa-984c-9c674b378575" data-comment="8de7e9be-df7f-426d-992e-36ccaad1a326-&gt;d752a61c-6a12-435c-a54e-28c07bbb62f5">

<path fill="none" stroke="black" d="M133.07,-86.7C136.79,-90.58 140.66,-94.84 144,-99 162.08,-121.48 161.92,-130.52 180,-153 181.04,-154.3 182.14,-155.61 183.27,-156.91" style=""/>
<polygon fill="black" stroke="black" points="180.58,-159.16 189.91,-164.18 185.75,-154.44 180.58,-159.16" style=""/>
</g>
<!-- 00a3450c&#45;e54e&#45;46f8&#45;8488&#45;8f52f19ac896 -->
<g id="node11" class="node" pointer-events="visible" data-name="f783f401-0f07-41ad-9f7f-07fed08020e1" data-comment="00a3450c-e54e-46f8-8488-8f52f19ac896">

<ellipse fill="#e0ffff" stroke="black" cx="207" cy="-126" rx="27" ry="18" style=""/>
<text text-anchor="middle" x="207" y="-121.8" font-family="Times,serif" font-size="14.00" style="">H</text>
</g>
<!-- 8de7e9be&#45;df7f&#45;426d&#45;992e&#45;36ccaad1a326&#45;&gt;00a3450c&#45;e54e&#45;46f8&#45;8488&#45;8f52f19ac896 -->
<g id="edge25" class="edge" data-name="c59f5c90-da62-4e22-a966-691a7fd42822-&gt;f783f401-0f07-41ad-9f7f-07fed08020e1" data-comment="8de7e9be-df7f-426d-992e-36ccaad1a326-&gt;00a3450c-e54e-46f8-8488-8f52f19ac896">

<path fill="none" stroke="black" d="M137.53,-83.98C149.15,-91.12 164.11,-100.3 177.08,-108.25" style=""/>
<polygon fill="black" stroke="black" points="174.88,-111.01 185.23,-113.26 178.54,-105.04 174.88,-111.01" style=""/>
</g>
<!-- 840f5a77&#45;bd21&#45;4bb1&#45;b3eb&#45;9d396ff65bf1&#45;&gt;068fc967&#45;28b1&#45;43a6&#45;8e89&#45;63a0c171be7c -->
<g id="edge14" class="edge" data-name="07d04cef-ed5e-4580-a5a3-c129b03aedb4-&gt;a09287a9-3bd3-4ce1-b835-ab55a4712e2e" data-comment="840f5a77-bd21-4bb1-b3eb-9d396ff65bf1-&gt;068fc967-28b1-43a6-8e89-63a0c171be7c">

<path fill="none" stroke="black" d="M137.53,-29.98C149.15,-37.12 164.11,-46.3 177.08,-54.25" style=""/>
<polygon fill="black" stroke="black" points="174.88,-57.01 185.23,-59.26 178.54,-51.04 174.88,-57.01" style=""/>
</g>
<!-- 840f5a77&#45;bd21&#45;4bb1&#45;b3eb&#45;9d396ff65bf1&#45;&gt;78a33cdb&#45;7a5e&#45;445d&#45;8d32&#45;26c09202c141 -->
<g id="edge18" class="edge" data-name="07d04cef-ed5e-4580-a5a3-c129b03aedb4-&gt;56da1a44-40a2-4546-926d-7badc1ff9b02" data-comment="840f5a77-bd21-4bb1-b3eb-9d396ff65bf1-&gt;78a33cdb-7a5e-445d-8d32-26c09202c141">

<path fill="none" stroke="black" d="M144.4,-18C151.89,-18 160.18,-18 168.2,-18" style=""/>
<polygon fill="black" stroke="black" points="168.1,-21.5 178.1,-18 168.1,-14.5 168.1,-21.5" style=""/>
</g>
<!-- 840f5a77&#45;bd21&#45;4bb1&#45;b3eb&#45;9d396ff65bf1&#45;&gt;d752a61c&#45;6a12&#45;435c&#45;a54e&#45;28c07bbb62f5 -->
<g id="edge22" class="edge" data-name="07d04cef-ed5e-4580-a5a3-c129b03aedb4-&gt;7530e41d-92be-40aa-984c-9c674b378575" data-comment="840f5a77-bd21-4bb1-b3eb-9d396ff65bf1-&gt;d752a61c-6a12-435c-a54e-28c07bbb62f5">

<path fill="none" stroke="black" d="M134.15,-32.42C137.76,-36.24 141.3,-40.55 144,-45 170.19,-88.29 153.81,-109.71 180,-153 180.84,-154.39 181.77,-155.77 182.75,-157.12" style=""/>
<polygon fill="black" stroke="black" points="179.77,-159.01 188.88,-164.42 185.13,-154.51 179.77,-159.01" style=""/>
</g>
<!-- 840f5a77&#45;bd21&#45;4bb1&#45;b3eb&#45;9d396ff65bf1&#45;&gt;00a3450c&#45;e54e&#45;46f8&#45;8488&#45;8f52f19ac896 -->
<g id="edge26" class="edge" data-name="07d04cef-ed5e-4580-a5a3-c129b03aedb4-&gt;f783f401-0f07-41ad-9f7f-07fed08020e1" data-comment="840f5a77-bd21-4bb1-b3eb-9d396ff65bf1-&gt;00a3450c-e54e-46f8-8488-8f52f19ac896">

<path fill="none" stroke="black" d="M133.07,-32.7C136.79,-36.58 140.66,-40.84 144,-45 162.08,-67.48 161.92,-76.52 180,-99 181.04,-100.3 182.14,-101.61 183.27,-102.91" style=""/>
<polygon fill="black" stroke="black" points="180.58,-105.16 189.91,-110.18 185.75,-100.44 180.58,-105.16" style=""/>
</g>
<!-- 111d9544&#45;7190&#45;4d90&#45;8410&#45;fd29292fb03d&#45;&gt;068fc967&#45;28b1&#45;43a6&#45;8e89&#45;63a0c171be7c -->
<g id="edge15" class="edge" data-name="e928ba7b-d150-4501-affd-00cfdcc8adde-&gt;a09287a9-3bd3-4ce1-b835-ab55a4712e2e" data-comment="111d9544-7190-4d90-8410-fd29292fb03d-&gt;068fc967-28b1-43a6-8e89-63a0c171be7c">

<path fill="none" stroke="black" d="M133.07,-165.3C136.79,-161.42 140.66,-157.16 144,-153 162.08,-130.52 161.92,-121.48 180,-99 181.04,-97.7 182.14,-96.39 183.27,-95.09" style=""/>
<polygon fill="black" stroke="black" points="185.75,-97.56 189.91,-87.82 180.58,-92.84 185.75,-97.56" style=""/>
</g>
<!-- 111d9544&#45;7190&#45;4d90&#45;8410&#45;fd29292fb03d&#45;&gt;78a33cdb&#45;7a5e&#45;445d&#45;8d32&#45;26c09202c141 -->
<g id="edge19" class="edge" data-name="e928ba7b-d150-4501-affd-00cfdcc8adde-&gt;56da1a44-40a2-4546-926d-7badc1ff9b02" data-comment="111d9544-7190-4d90-8410-fd29292fb03d-&gt;78a33cdb-7a5e-445d-8d32-26c09202c141">

<path fill="none" stroke="black" d="M134.15,-165.58C137.76,-161.76 141.3,-157.45 144,-153 170.19,-109.71 153.81,-88.29 180,-45 180.84,-43.61 181.77,-42.23 182.75,-40.88" style=""/>
<polygon fill="black" stroke="black" points="185.13,-43.49 188.88,-33.58 179.77,-38.99 185.13,-43.49" style=""/>
</g>
<!-- 111d9544&#45;7190&#45;4d90&#45;8410&#45;fd29292fb03d&#45;&gt;d752a61c&#45;6a12&#45;435c&#45;a54e&#45;28c07bbb62f5 -->
<g id="edge23" class="edge" data-name="e928ba7b-d150-4501-affd-00cfdcc8adde-&gt;7530e41d-92be-40aa-984c-9c674b378575" data-comment="111d9544-7190-4d90-8410-fd29292fb03d-&gt;d752a61c-6a12-435c-a54e-28c07bbb62f5">

<path fill="none" stroke="black" d="M144.4,-180C151.89,-180 160.18,-180 168.2,-180" style=""/>
<polygon fill="black" stroke="black" points="168.1,-183.5 178.1,-180 168.1,-176.5 168.1,-183.5" style=""/>
</g>
<!-- 111d9544&#45;7190&#45;4d90&#45;8410&#45;fd29292fb03d&#45;&gt;00a3450c&#45;e54e&#45;46f8&#45;8488&#45;8f52f19ac896 -->
<g id="edge27" class="edge" data-name="e928ba7b-d150-4501-affd-00cfdcc8adde-&gt;f783f401-0f07-41ad-9f7f-07fed08020e1" data-comment="111d9544-7190-4d90-8410-fd29292fb03d-&gt;00a3450c-e54e-46f8-8488-8f52f19ac896">

<path fill="none" stroke="black" d="M137.53,-168.02C149.15,-160.88 164.11,-151.7 177.08,-143.75" style=""/>
<polygon fill="black" stroke="black" points="178.54,-146.96 185.23,-138.74 174.88,-140.99 178.54,-146.96" style=""/>
</g>
<!-- 781be880&#45;34c1&#45;49ab&#45;87d7&#45;7c54f3f28438&#45;&gt;068fc967&#45;28b1&#45;43a6&#45;8e89&#45;63a0c171be7c -->
<g id="edge16" class="edge" data-name="b0d93fa7-1a06-483e-b30e-107d5d60814c-&gt;a09287a9-3bd3-4ce1-b835-ab55a4712e2e" data-comment="781be880-34c1-49ab-87d7-7c54f3f28438-&gt;068fc967-28b1-43a6-8e89-63a0c171be7c">

<path fill="none" stroke="black" d="M137.53,-114.02C149.15,-106.88 164.11,-97.7 177.08,-89.75" style=""/>
<polygon fill="black" stroke="black" points="178.54,-92.96 185.23,-84.74 174.88,-86.99 178.54,-92.96" style=""/>
</g>
<!-- 781be880&#45;34c1&#45;49ab&#45;87d7&#45;7c54f3f28438&#45;&gt;78a33cdb&#45;7a5e&#45;445d&#45;8d32&#45;26c09202c141 -->
<g id="edge20" class="edge" data-name="b0d93fa7-1a06-483e-b30e-107d5d60814c-&gt;56da1a44-40a2-4546-926d-7badc1ff9b02" data-comment="781be880-34c1-49ab-87d7-7c54f3f28438-&gt;78a33cdb-7a5e-445d-8d32-26c09202c141">

<path fill="none" stroke="black" d="M133.07,-111.3C136.79,-107.42 140.66,-103.16 144,-99 162.08,-76.52 161.92,-67.48 180,-45 181.04,-43.7 182.14,-42.39 183.27,-41.09" style=""/>
<polygon fill="black" stroke="black" points="185.75,-43.56 189.91,-33.82 180.58,-38.84 185.75,-43.56" style=""/>
</g>
<!-- 781be880&#45;34c1&#45;49ab&#45;87d7&#45;7c54f3f28438&#45;&gt;d752a61c&#45;6a12&#45;435c&#45;a54e&#45;28c07bbb62f5 -->
<g id="edge24" class="edge" data-name="b0d93fa7-1a06-483e-b30e-107d5d60814c-&gt;7530e41d-92be-40aa-984c-9c674b378575" data-comment="781be880-34c1-49ab-87d7-7c54f3f28438-&gt;d752a61c-6a12-435c-a54e-28c07bbb62f5">

<path fill="none" stroke="black" d="M137.53,-137.98C149.15,-145.12 164.11,-154.3 177.08,-162.25" style=""/>
<polygon fill="black" stroke="black" points="174.88,-165.01 185.23,-167.26 178.54,-159.04 174.88,-165.01" style=""/>
</g>
<!-- 781be880&#45;34c1&#45;49ab&#45;87d7&#45;7c54f3f28438&#45;&gt;00a3450c&#45;e54e&#45;46f8&#45;8488&#45;8f52f19ac896 -->
<g id="edge28" class="edge" data-name="b0d93fa7-1a06-483e-b30e-107d5d60814c-&gt;f783f401-0f07-41ad-9f7f-07fed08020e1" data-comment="781be880-34c1-49ab-87d7-7c54f3f28438-&gt;00a3450c-e54e-46f8-8488-8f52f19ac896">

<path fill="none" stroke="black" d="M144.4,-126C151.89,-126 160.18,-126 168.2,-126" style=""/>
<polygon fill="black" stroke="black" points="168.1,-129.5 178.1,-126 168.1,-122.5 168.1,-129.5" style=""/>
</g>
<!-- 0c949504&#45;f1ec&#45;4d71&#45;bb24&#45;335f56210a7e -->
<g id="node12" class="node" pointer-events="visible" data-name="e6e3c4aa-44a2-4537-b8ac-fec914d1a12b" data-comment="0c949504-f1ec-4d71-bb24-335f56210a7e">

<ellipse fill="#ffa07a" stroke="black" cx="297" cy="-99" rx="27" ry="18" style=""/>
<text text-anchor="middle" x="297" y="-94.8" font-family="Times,serif" font-size="14.00" style="">o</text>
</g>
<!-- 068fc967&#45;28b1&#45;43a6&#45;8e89&#45;63a0c171be7c&#45;&gt;0c949504&#45;f1ec&#45;4d71&#45;bb24&#45;335f56210a7e -->
<g id="edge29" class="edge" data-name="a09287a9-3bd3-4ce1-b835-ab55a4712e2e-&gt;e6e3c4aa-44a2-4537-b8ac-fec914d1a12b" data-comment="068fc967-28b1-43a6-8e89-63a0c171be7c-&gt;0c949504-f1ec-4d71-bb24-335f56210a7e">

<path fill="none" stroke="black" d="M232.05,-79.38C240.97,-82.12 251.29,-85.28 260.99,-88.26" style=""/>
<polygon fill="black" stroke="black" points="259.95,-91.6 270.54,-91.19 262,-84.91 259.95,-91.6" style=""/>
</g>
<!-- 6f8d7bc1&#45;0198&#45;4528&#45;af6f&#45;d4532ef534c7 -->
<g id="edge30" class="edge" data-name="56da1a44-40a2-4546-926d-7badc1ff9b02-&gt;e6e3c4aa-44a2-4537-b8ac-fec914d1a12b" data-comment="6f8d7bc1-0198-4528-af6f-d4532ef534c7">

<path fill="none" stroke="black" d="M223.73,-32.48C237.25,-44.92 256.93,-63.04 272.35,-77.23" style=""/>
<polygon fill="black" stroke="black" points="269.56,-79.42 279.29,-83.62 274.3,-74.27 269.56,-79.42" style=""/>
</g>
<!-- 068fc967&#45;28b1&#45;43a6&#45;8e89&#45;63a0c171be7c&#45;&gt;6f8d7bc1&#45;0198&#45;4528&#45;af6f&#45;d4532ef534c7 -->
<g id="edge31" class="edge" data-name="7530e41d-92be-40aa-984c-9c674b378575-&gt;e6e3c4aa-44a2-4537-b8ac-fec914d1a12b" data-comment="068fc967-28b1-43a6-8e89-63a0c171be7c-&gt;6f8d7bc1-0198-4528-af6f-d4532ef534c7">

<path fill="none" stroke="black" d="M223.73,-165.52C237.25,-153.08 256.93,-134.96 272.35,-120.77" style=""/>
<polygon fill="black" stroke="black" points="274.3,-123.73 279.29,-114.38 269.56,-118.58 274.3,-123.73" style=""/>
</g>
<!-- 888c7cbb&#45;350f&#45;473b&#45;9bfb&#45;7d92357f1e52 -->
<g id="edge32" class="edge" data-name="f783f401-0f07-41ad-9f7f-07fed08020e1-&gt;e6e3c4aa-44a2-4537-b8ac-fec914d1a12b" data-comment="888c7cbb-350f-473b-9bfb-7d92357f1e52">

<path fill="none" stroke="black" d="M232.05,-118.62C240.97,-115.88 251.29,-112.72 260.99,-109.74" style=""/>
<polygon fill="black" stroke="black" points="262,-113.09 270.54,-106.81 259.95,-106.4 262,-113.09" style=""/>
</g>
</g>
</svg>