<?xml version="1.0" standalone="no"?>
<svg xmlns="http://www.w3.org/2000/svg" xmlns:xlink="http://www.w3.org/1999/xlink" width="720pt" height="337pt" viewBox="0.00 0.00 720.39 337">
<g id="graph0" class="graph" transform="translate(4,333) scale(1)" data-name="Micrograd">

<polygon fill="white" stroke="none" points="-4,4 -4,-333 716.39,-333 716.39,4 -4,4"/>
<!-- 17eb76ad&#45;be65&#45;47b3&#45;b232&#45;fa69c0214793 -->
<g id="node1" class="node" pointer-events="visible" data-name="aa7fc326-a077-4e82-892c-a474f4ac359f" data-comment="17eb76ad-be65-47b3-b232-fa69c0214793">

<polygon fill="#fafad2" stroke="#ff0000" points="376.53,-0.5 376.53,-36.5 548.63,-36.5 548.63,-0.5 376.53,-0.5" style=""/>
<text text-anchor="middle" x="388.03" y="-14.3" font-family="Times,serif" font-size="14.00" style="">o</text>
<polyline fill="none" stroke="#ff0000" points="399.53,-0.5 399.53,-36.5" style=""/>
<text text-anchor="middle" x="426.78" y="-14.3" font-family="Times,serif" font-size="14.00" style="">0.7071</text>
<polyline fill="none" stroke="#ff0000" points="454.03,-0.5 454.03,-36.5" style=""/>
<text text-anchor="middle" x="481.28" y="-14.3" font-family="Times,serif" font-size="14.00" style="">1.0000</text>
<polyline fill="none" stroke="#ff0000" points="508.53,-0.5 508.53,-36.5" style=""/>
<text text-anchor="middle" x="528.58" y="-14.3" font-family="Times,serif" font-size="14.00" style="">tanh</text>
</g>
<!-- 7004bd76&#45;2129&#45;450e&#45;bbb5&#45;3bd8a1795b08 -->
<g id="node2" class="node" pointer-events="visible" data-name="1da01f63-1784-4b76-8a92-c41fd26fd7d9" data-comment="7004bd76-2129-450e-bbb5-3bd8a1795b08">

<polygon fill="lightgrey" stroke="black" points="384.63,-73.5 384.63,-109.5 540.53,-109.5 540.53,-73.5 384.63,-73.5" style=""/>
<text text-anchor="middle" x="396.13" y="-87.3" font-family="Times,serif" font-size="14.00" style="">n</text>
<polyline fill="none" stroke="black" points="407.63,-73.5 407.63,-109.5" style=""/>
<text text-anchor="middle" x="434.88" y="-87.3" font-family="Times,serif" font-size="14.00" style="">0.8814</text>
<polyline fill="none" stroke="black" points="462.13,-73.5 462.13,-109.5" style=""/>
<text text-anchor="middle" x="489.38" y="-87.3" font-family="Times,serif" font-size="14.00" style="">0.5000</text>
<polyline fill="none" stroke="black" points="516.63,-73.5 516.63,-109.5" style=""/>
<text text-anchor="middle" x="528.58" y="-87.3" font-family="Times,serif" font-size="14.00" style="">+</text>
</g>
<!-- 17eb76ad&#45;be65&#45;47b3&#45;b232&#45;fa69c0214793&#45;&gt;7004bd76&#45;2129&#45;450e&#45;bbb5&#45;3bd8a1795b08 -->
<g id="edge9" class="edge" data-name="1da01f63-1784-4b76-8a92-c41fd26fd7d9-&gt;aa7fc326-a077-4e82-892c-a474f4ac359f" data-comment="17eb76ad-be65-47b3-b232-fa69c0214793-&gt;7004bd76-2129-450e-bbb5-3bd8a1795b08">

<path fill="none" stroke="black" d="M462.58,-73.67C462.58,-65.89 462.58,-56.44 462.58,-47.62" style=""/>
<polygon fill="black" stroke="black" points="466.08,-47.72 462.58,-37.72 459.08,-47.72 466.08,-47.72" style=""/>
</g>
<!-- 394cfe9c&#45;7621&#45;48b1&#45;bf4e&#45;d0243a3084f8 -->
<g id="node3" class="node" pointer-events="visible" data-name="24d905c0-1319-4240-ac88-43fa66616a86" data-comment="394cfe9c-7621-48b1-bf4e-d0243a3084f8">

<polygon fill="lightgrey" stroke="black" points="243.24,-146.5 243.24,-182.5 473.92,-182.5 473.92,-146.5 243.24,-146.5" style=""/>
<text text-anchor="middle" x="289.8" y="-160.3" font-family="Times,serif" font-size="14.00" style="">x1w1 + x2w2</text>
<polyline fill="none" stroke="black" points="336.36,-146.5 336.36,-182.5" style=""/>
<text text-anchor="middle" x="365.94" y="-160.3" font-family="Times,serif" font-size="14.00" style="">-6.0000</text>
<polyline fill="none" stroke="black" points="395.52,-146.5 395.52,-182.5" style=""/>
<text text-anchor="middle" x="422.77" y="-160.3" font-family="Times,serif" font-size="14.00" style="">0.5000</text>
<polyline fill="none" stroke="black" points="450.02,-146.5 450.02,-182.5" style=""/>
<text text-anchor="middle" x="461.97" y="-160.3" font-family="Times,serif" font-size="14.00" style="">+</text>
</g>
<!-- 7004bd76&#45;2129&#45;450e&#45;bbb5&#45;3bd8a1795b08&#45;&gt;394cfe9c&#45;7621&#45;48b1&#45;bf4e&#45;d0243a3084f8 -->
<g id="edge7" class="edge" data-name="24d905c0-1319-4240-ac88-43fa66616a86-&gt;1da01f63-1784-4b76-8a92-c41fd26fd7d9" data-comment="7004bd76-2129-450e-bbb5-3bd8a1795b08-&gt;394cfe9c-7621-48b1-bf4e-d0243a3084f8">

<path fill="none" stroke="black" d="M383.23,-146.67C396.73,-137.46 413.67,-125.89 428.43,-115.82" style=""/>
<polygon fill="black" stroke="black" points="430.22,-118.83 436.5,-110.3 426.27,-113.05 430.22,-118.83" style=""/>
</g>
<!-- 1478923e&#45;c129&#45;4ba8&#45;94e7&#45;9f7ec6adbf03 -->
<g id="node4" class="node" pointer-events="visible" data-name="09e8975d-e6a0-43ae-9151-cb9ab102af05" data-comment="1478923e-c129-4ba8-94e7-9f7ec6adbf03">

<polygon fill="lightgrey" stroke="black" points="167.69,-219.5 167.69,-255.5 351.47,-255.5 351.47,-219.5 167.69,-219.5" style=""/>
<text text-anchor="middle" x="191.25" y="-233.3" font-family="Times,serif" font-size="14.00" style="">x1w1</text>
<polyline fill="none" stroke="black" points="214.81,-219.5 214.81,-255.5" style=""/>
<text text-anchor="middle" x="244.39" y="-233.3" font-family="Times,serif" font-size="14.00" style="">-6.0000</text>
<polyline fill="none" stroke="black" points="273.97,-219.5 273.97,-255.5" style=""/>
<text text-anchor="middle" x="301.22" y="-233.3" font-family="Times,serif" font-size="14.00" style="">0.5000</text>
<polyline fill="none" stroke="black" points="328.47,-219.5 328.47,-255.5" style=""/>
<text text-anchor="middle" x="339.97" y="-233.3" font-family="Times,serif" font-size="14.00" style="">*</text>
</g>
<!-- 7004bd76&#45;2129&#45;450e&#45;bbb5&#45;3bd8a1795b08&#45;&gt;1478923e&#45;c129&#45;4ba8&#45;94e7&#45;9f7ec6adbf03 -->
<g id="edge3" class="edge" data-name="09e8975d-e6a0-43ae-9151-cb9ab102af05-&gt;24d905c0-1319-4240-ac88-43fa66616a86" data-comment="7004bd76-2129-450e-bbb5-3bd8a1795b08-&gt;1478923e-c129-4ba8-94e7-9f7ec6adbf03">

<path fill="none" stroke="black" d="M283.04,-219.67C295.77,-210.54 311.71,-199.11 325.67,-189.11" style=""/>
<polygon fill="black" stroke="black" points="327.63,-192.01 333.71,-183.33 323.55,-186.32 327.63,-192.01" style=""/>
</g>
<!-- 2aa19094&#45;0f7e&#45;4ded&#45;af3b&#45;33f88f4c8705 -->
<g id="node5" class="node" pointer-events="visible" data-name="d3cd1a10-1836-4a7d-a396-422b73596b29" data-comment="2aa19094-0f7e-4ded-af3b-33f88f4c8705">

<polygon fill="#90ee90" stroke="#008000" points="0,-292.5 0,-328.5 163.16,-328.5 163.16,-292.5 0,-292.5" style=""/>
<text text-anchor="middle" x="15" y="-306.3" font-family="Times,serif" font-size="14.00" style="">x1</text>
<polyline fill="none" stroke="#008000" points="30,-292.5 30,-328.5" style=""/>
<text text-anchor="middle" x="57.25" y="-306.3" font-family="Times,serif" font-size="14.00" style="">2.0000</text>
<polyline fill="none" stroke="#008000" points="84.5,-292.5 84.5,-328.5" style=""/>
<text text-anchor="middle" x="114.08" y="-306.3" font-family="Times,serif" font-size="14.00" style="">-1.5000</text>
<polyline fill="none" stroke="#008000" points="143.66,-292.5 143.66,-328.5" style=""/>
<text text-anchor="middle" x="153.41" y="-306.3" font-family="Times,serif" font-size="14.00" style=""> </text>
</g>
<!-- 394cfe9c&#45;7621&#45;48b1&#45;bf4e&#45;d0243a3084f8&#45;&gt;2aa19094&#45;0f7e&#45;4ded&#45;af3b&#45;33f88f4c8705 -->
<g id="edge1" class="edge" data-name="d3cd1a10-1836-4a7d-a396-422b73596b29-&gt;09e8975d-e6a0-43ae-9151-cb9ab102af05" data-comment="394cfe9c-7621-48b1-bf4e-d0243a3084f8-&gt;2aa19094-0f7e-4ded-af3b-33f88f4c8705">

<path fill="none" stroke="black" d="M123.76,-292.67C148.52,-282.8 180.04,-270.23 206.48,-259.68" style=""/>
<polygon fill="black" stroke="black" points="207.69,-262.97 215.68,-256.01 205.09,-256.47 207.69,-262.97" style=""/>
</g>
<!-- 35a49950&#45;4c0b&#45;4674&#45;872a&#45;24b116a26d69 -->
<g id="node6" class="node" pointer-events="visible" data-name="8021670f-a1c3-45eb-b582-72478b66cde7" data-comment="35a49950-4c0b-4674-872a-24b116a26d69">

<polygon fill="#90ee90" stroke="#008000" points="181.44,-292.5 181.44,-328.5 347.72,-328.5 347.72,-292.5 181.44,-292.5" style=""/>
<text text-anchor="middle" x="198" y="-306.3" font-family="Times,serif" font-size="14.00" style="">w1</text>
<polyline fill="none" stroke="#008000" points="214.56,-292.5 214.56,-328.5" style=""/>
<text text-anchor="middle" x="244.14" y="-306.3" font-family="Times,serif" font-size="14.00" style="">-3.0000</text>
<polyline fill="none" stroke="#008000" points="273.72,-292.5 273.72,-328.5" style=""/>
<text text-anchor="middle" x="300.97" y="-306.3" font-family="Times,serif" font-size="14.00" style="">1.0000</text>
<polyline fill="none" stroke="#008000" points="328.22,-292.5 328.22,-328.5" style=""/>
<text text-anchor="middle" x="337.97" y="-306.3" font-family="Times,serif" font-size="14.00" style=""> </text>
</g>
<!-- 394cfe9c&#45;7621&#45;48b1&#45;bf4e&#45;d0243a3084f8&#45;&gt;35a49950&#45;4c0b&#45;4674&#45;872a&#45;24b116a26d69 -->
<g id="edge2" class="edge" data-name="8021670f-a1c3-45eb-b582-72478b66cde7-&gt;09e8975d-e6a0-43ae-9151-cb9ab102af05" data-comment="394cfe9c-7621-48b1-bf4e-d0243a3084f8-&gt;35a49950-4c0b-4674-872a-24b116a26d69">

<path fill="none" stroke="black" d="M263.4,-292.67C262.85,-284.89 262.18,-275.44 261.56,-266.62" style=""/>
<polygon fill="black" stroke="black" points="265.06,-266.44 260.86,-256.72 258.08,-266.94 265.06,-266.44" style=""/>
</g>
<!-- d8e14bac&#45;a83e&#45;4735&#45;bd56&#45;919f59cd3352 -->
<g id="node7" class="node" pointer-events="visible" data-name="99f51dbb-29da-4af9-911a-248cdd5f2144" data-comment="d8e14bac-a83e-4735-bd56-919f59cd3352">

<polygon fill="lightgrey" stroke="black" points="369.03,-219.5 369.03,-255.5 548.14,-255.5 548.14,-219.5 369.03,-219.5" style=""/>
<text text-anchor="middle" x="392.58" y="-233.3" font-family="Times,serif" font-size="14.00" style="">x2w2</text>
<polyline fill="none" stroke="black" points="416.14,-219.5 416.14,-255.5" style=""/>
<text text-anchor="middle" x="443.39" y="-233.3" font-family="Times,serif" font-size="14.00" style="">0.0000</text>
<polyline fill="none" stroke="black" points="470.64,-219.5 470.64,-255.5" style=""/>
<text text-anchor="middle" x="497.89" y="-233.3" font-family="Times,serif" font-size="14.00" style="">0.5000</text>
<polyline fill="none" stroke="black" points="525.14,-219.5 525.14,-255.5" style=""/>
<text text-anchor="middle" x="536.64" y="-233.3" font-family="Times,serif" font-size="14.00" style="">*</text>
</g>
<!-- 2aa19094&#45;0f7e&#45;4ded&#45;af3b&#45;33f88f4c8705&#45;&gt;d8e14bac&#45;a83e&#45;4735&#45;bd56&#45;919f59cd3352 -->
<g id="edge6" class="edge" data-name="99f51dbb-29da-4af9-911a-248cdd5f2144-&gt;24d905c0-1319-4240-ac88-43fa66616a86" data-comment="2aa19094-0f7e-4ded-af3b-33f88f4c8705-&gt;d8e14bac-a83e-4735-bd56-919f59cd3352">

<path fill="none" stroke="black" d="M434.88,-219.67C422.02,-210.54 405.92,-199.11 391.83,-189.11" style=""/>
<polygon fill="black" stroke="black" points="393.87,-186.26 383.69,-183.33 389.82,-191.97 393.87,-186.26" style=""/>
</g>
<!-- bf8937aa&#45;62b1&#45;464e&#45;9945&#45;81527db5e7fa -->
<g id="node8" class="node" pointer-events="visible" data-name="d581b40f-9222-4fab-9455-49c0891b0fc7" data-comment="bf8937aa-62b1-464e-9945-81527db5e7fa">

<polygon fill="#90ee90" stroke="#008000" points="374.33,-292.5 374.33,-328.5 532.83,-328.5 532.83,-292.5 374.33,-292.5" style=""/>
<text text-anchor="middle" x="389.33" y="-306.3" font-family="Times,serif" font-size="14.00" style="">x2</text>
<polyline fill="none" stroke="#008000" points="404.33,-292.5 404.33,-328.5" style=""/>
<text text-anchor="middle" x="431.58" y="-306.3" font-family="Times,serif" font-size="14.00" style="">0.0000</text>
<polyline fill="none" stroke="#008000" points="458.83,-292.5 458.83,-328.5" style=""/>
<text text-anchor="middle" x="486.08" y="-306.3" font-family="Times,serif" font-size="14.00" style="">0.5000</text>
<polyline fill="none" stroke="#008000" points="513.33,-292.5 513.33,-328.5" style=""/>
<text text-anchor="middle" x="523.08" y="-306.3" font-family="Times,serif" font-size="14.00" style=""> </text>
</g>
<!-- 2aa19094&#45;0f7e&#45;4ded&#45;af3b&#45;33f88f4c8705&#45;&gt;bf8937aa&#45;62b1&#45;464e&#45;9945&#45;81527db5e7fa -->
<g id="edge4" class="edge" data-name="d581b40f-9222-4fab-9455-49c0891b0fc7-&gt;99f51dbb-29da-4af9-911a-248cdd5f2144" data-comment="2aa19094-0f7e-4ded-af3b-33f88f4c8705-&gt;bf8937aa-62b1-464e-9945-81527db5e7fa">

<path fill="none" stroke="black" d="M454.77,-292.67C455.31,-284.89 455.98,-275.44 456.6,-266.62" style=""/>
<polygon fill="black" stroke="black" points="460.09,-266.94 457.3,-256.72 453.1,-266.44 460.09,-266.94" style=""/>
</g>
<!-- 0bcfd4cf&#45;8d83&#45;44c7&#45;b782&#45;88a3712bd5a5 -->
<g id="node9" class="node" pointer-events="visible" data-name="084a344d-0f95-4292-968a-7679503a0a5f" data-comment="0bcfd4cf-8d83-44c7-b782-88a3712bd5a5">

<polygon fill="#90ee90" stroke="#008000" points="550.78,-292.5 550.78,-328.5 712.39,-328.5 712.39,-292.5 550.78,-292.5" style=""/>
<text text-anchor="middle" x="567.33" y="-306.3" font-family="Times,serif" font-size="14.00" style="">w2</text>
<polyline fill="none" stroke="#008000" points="583.89,-292.5 583.89,-328.5" style=""/>
<text text-anchor="middle" x="611.14" y="-306.3" font-family="Times,serif" font-size="14.00" style="">1.0000</text>
<polyline fill="none" stroke="#008000" points="638.39,-292.5 638.39,-328.5" style=""/>
<text text-anchor="middle" x="665.64" y="-306.3" font-family="Times,serif" font-size="14.00" style="">0.0000</text>
<polyline fill="none" stroke="#008000" points="692.89,-292.5 692.89,-328.5" style=""/>
<text text-anchor="middle" x="702.64" y="-306.3" font-family="Times,serif" font-size="14.00" style=""> </text>
</g>
<!-- 35a49950&#45;4c0b&#45;4674&#45;872a&#45;24b116a26d69&#45;&gt;0bcfd4cf&#45;8d83&#45;44c7&#45;b782&#45;88a3712bd5a5 -->
<g id="edge5" class="edge" data-name="084a344d-0f95-4292-968a-7679503a0a5f-&gt;99f51dbb-29da-4af9-911a-248cdd5f2144" data-comment="35a49950-4c0b-4674-872a-24b116a26d69-&gt;0bcfd4cf-8d83-44c7-b782-88a3712bd5a5">

<path fill="none" stroke="black" d="M590.58,-292.67C566.52,-282.8 535.89,-270.23 510.19,-259.68" style=""/>
<polygon fill="black" stroke="black" points="511.87,-256.58 501.29,-256.03 509.21,-263.06 511.87,-256.58" style=""/>
</g>
<!-- ce10f7c8&#45;a92d&#45;42e5&#45;a612&#45;47b55c8d447c -->
<g id="node10" class="node" pointer-events="visible" data-name="732e5adc-f1f2-41cf-9612-aceffe9049dd" data-comment="ce10f7c8-a92d-42e5-a612-47b55c8d447c">

<polygon fill="#90ee90" stroke="#008000" points="491.83,-146.5 491.83,-182.5 643.33,-182.5 643.33,-146.5 491.83,-146.5" style=""/>
<text text-anchor="middle" x="503.33" y="-160.3" font-family="Times,serif" font-size="14.00" style="">b</text>
<polyline fill="none" stroke="#008000" points="514.83,-146.5 514.83,-182.5" style=""/>
<text text-anchor="middle" x="542.08" y="-160.3" font-family="Times,serif" font-size="14.00" style="">6.8814</text>
<polyline fill="none" stroke="#008000" points="569.33,-146.5 569.33,-182.5" style=""/>
<text text-anchor="middle" x="596.58" y="-160.3" font-family="Times,serif" font-size="14.00" style="">0.5000</text>
<polyline fill="none" stroke="#008000" points="623.83,-146.5 623.83,-182.5" style=""/>
<text text-anchor="middle" x="633.58" y="-160.3" font-family="Times,serif" font-size="14.00" style=""> </text>
</g>
<!-- 35a49950&#45;4c0b&#45;4674&#45;872a&#45;24b116a26d69&#45;&gt;ce10f7c8&#45;a92d&#45;42e5&#45;a612&#45;47b55c8d447c -->
<g id="edge8" class="edge" data-name="732e5adc-f1f2-41cf-9612-aceffe9049dd-&gt;1da01f63-1784-4b76-8a92-c41fd26fd7d9" data-comment="35a49950-4c0b-4674-872a-24b116a26d69-&gt;ce10f7c8-a92d-42e5-a612-47b55c8d447c">

<path fill="none" stroke="black" d="M542.7,-146.67C529.07,-137.46 511.96,-125.89 497.06,-115.82" style=""/>
<polygon fill="black" stroke="black" points="499.15,-113 488.9,-110.3 495.23,-118.8 499.15,-113" style=""/>
</g>
</g>
</svg>