<?xml version="1.0" standalone="no"?>
<svg xmlns="http://www.w3.org/2000/svg" xmlns:xlink="http://www.w3.org/1999/xlink" width="720pt" height="337pt" viewBox="0.00 0.00 720.39 337.00">
<g id="graph0" class="graph" transform="translate(4,333) scale(1)" data-name="Micrograd">

<polygon fill="white" stroke="none" points="-4,4 -4,-333 716.39,-333 716.39,4 -4,4" style=""/>
<!-- 368db4e5&#45;c326&#45;4a61&#45;a257&#45;a16bd6cb3056 -->
<g id="node1" class="node" pointer-events="visible" data-name="368db4e5-c326-4a61-a257-a16bd6cb3056">

<polygon fill="none" stroke="black" points="374.2,-292.5 374.2,-328.5 550.96,-328.5 550.96,-292.5 374.2,-292.5" style=""/>
<text text-anchor="middle" x="385.7" y="-306.3" font-family="Times,serif" font-size="14.00" style="">o</text>
<polyline fill="none" stroke="black" points="397.2,-292.5 397.2,-328.5" style=""/>
<text text-anchor="middle" x="426.78" y="-306.3" font-family="Times,serif" font-size="14.00" style="">-0.7071</text>
<polyline fill="none" stroke="black" points="456.36,-292.5 456.36,-328.5" style=""/>
<text text-anchor="middle" x="483.61" y="-306.3" font-family="Times,serif" font-size="14.00" style="">1.0000</text>
<polyline fill="none" stroke="black" points="510.86,-292.5 510.86,-328.5" style=""/>
<text text-anchor="middle" x="530.91" y="-306.3" font-family="Times,serif" font-size="14.00" style="">tanh</text>
</g>
<!-- 878d49e0&#45;097a&#45;45f2&#45;baee&#45;cfd4435af5c4 -->
<g id="node2" class="node" pointer-events="visible" data-name="878d49e0-097a-45f2-baee-cfd4435af5c4">

<polygon fill="none" stroke="black" points="384.63,-219.5 384.63,-255.5 540.53,-255.5 540.53,-219.5 384.63,-219.5" style=""/>
<text text-anchor="middle" x="396.13" y="-233.3" font-family="Times,serif" font-size="14.00" style="">n</text>
<polyline fill="none" stroke="black" points="407.63,-219.5 407.63,-255.5" style=""/>
<text text-anchor="middle" x="434.88" y="-233.3" font-family="Times,serif" font-size="14.00" style="">0.8814</text>
<polyline fill="none" stroke="black" points="462.13,-219.5 462.13,-255.5" style=""/>
<text text-anchor="middle" x="489.38" y="-233.3" font-family="Times,serif" font-size="14.00" style="">0.5000</text>
<polyline fill="none" stroke="black" points="516.63,-219.5 516.63,-255.5" style=""/>
<text text-anchor="middle" x="528.58" y="-233.3" font-family="Times,serif" font-size="14.00" style="">+</text>
</g>
<!-- 368db4e5&#45;c326&#45;4a61&#45;a257&#45;a16bd6cb3056&#45;&gt;878d49e0&#45;097a&#45;45f2&#45;baee&#45;cfd4435af5c4 -->
<g id="edge9" class="edge" data-name="368db4e5-c326-4a61-a257-a16bd6cb3056-&gt;878d49e0-097a-45f2-baee-cfd4435af5c4">

<path fill="none" stroke="black" d="M462.58,-292.67C462.58,-284.89 462.58,-275.44 462.58,-266.62" style=""/>
<polygon fill="black" stroke="black" points="466.08,-266.72 462.58,-256.72 459.08,-266.72 466.08,-266.72" style=""/>
</g>
<!-- 7fc4d226&#45;8fc6&#45;41f8&#45;9491&#45;c3a3167baaf2 -->
<g id="node3" class="node" pointer-events="visible" data-name="7fc4d226-8fc6-41f8-9491-c3a3167baaf2">

<polygon fill="none" stroke="black" points="243.24,-146.5 243.24,-182.5 473.92,-182.5 473.92,-146.5 243.24,-146.5" style=""/>
<text text-anchor="middle" x="289.8" y="-160.3" font-family="Times,serif" font-size="14.00" style="">x1w1 + x2w2</text>
<polyline fill="none" stroke="black" points="336.36,-146.5 336.36,-182.5" style=""/>
<text text-anchor="middle" x="365.94" y="-160.3" font-family="Times,serif" font-size="14.00" style="">-6.0000</text>
<polyline fill="none" stroke="black" points="395.52,-146.5 395.52,-182.5" style=""/>
<text text-anchor="middle" x="422.77" y="-160.3" font-family="Times,serif" font-size="14.00" style="">0.5000</text>
<polyline fill="none" stroke="black" points="450.02,-146.5 450.02,-182.5" style=""/>
<text text-anchor="middle" x="461.97" y="-160.3" font-family="Times,serif" font-size="14.00" style="">+</text>
</g>
<!-- 878d49e0&#45;097a&#45;45f2&#45;baee&#45;cfd4435af5c4&#45;&gt;7fc4d226&#45;8fc6&#45;41f8&#45;9491&#45;c3a3167baaf2 -->
<g id="edge7" class="edge" data-name="878d49e0-097a-45f2-baee-cfd4435af5c4-&gt;7fc4d226-8fc6-41f8-9491-c3a3167baaf2">

<path fill="none" stroke="black" d="M437.93,-219.67C424.43,-210.46 407.49,-198.89 392.74,-188.82" style=""/>
<polygon fill="black" stroke="black" points="394.89,-186.05 384.66,-183.3 390.95,-191.83 394.89,-186.05" style=""/>
</g>
<!-- 4ec68864&#45;d973&#45;4e8c&#45;8758&#45;1a70593001b0 -->
<g id="node10" class="node" pointer-events="visible" data-name="4ec68864-d973-4e8c-8758-1a70593001b0">

<polygon fill="none" stroke="black" points="491.83,-146.5 491.83,-182.5 643.33,-182.5 643.33,-146.5 491.83,-146.5" style=""/>
<text text-anchor="middle" x="503.33" y="-160.3" font-family="Times,serif" font-size="14.00" style="">b</text>
<polyline fill="none" stroke="black" points="514.83,-146.5 514.83,-182.5" style=""/>
<text text-anchor="middle" x="542.08" y="-160.3" font-family="Times,serif" font-size="14.00" style="">6.8814</text>
<polyline fill="none" stroke="black" points="569.33,-146.5 569.33,-182.5" style=""/>
<text text-anchor="middle" x="596.58" y="-160.3" font-family="Times,serif" font-size="14.00" style="">0.5000</text>
<polyline fill="none" stroke="black" points="623.83,-146.5 623.83,-182.5" style=""/>
<text text-anchor="middle" x="633.58" y="-160.3" font-family="Times,serif" font-size="14.00" style=""> </text>
</g>
<!-- 878d49e0&#45;097a&#45;45f2&#45;baee&#45;cfd4435af5c4&#45;&gt;4ec68864&#45;d973&#45;4e8c&#45;8758&#45;1a70593001b0 -->
<g id="edge8" class="edge" data-name="878d49e0-097a-45f2-baee-cfd4435af5c4-&gt;4ec68864-d973-4e8c-8758-1a70593001b0">

<path fill="none" stroke="black" d="M487.46,-219.67C501.1,-210.46 518.2,-198.89 533.1,-188.82" style=""/>
<polygon fill="black" stroke="black" points="534.94,-191.8 541.26,-183.3 531.01,-186 534.94,-191.8" style=""/>
</g>
<!-- 76f8e777&#45;cb60&#45;45e5&#45;ad1e&#45;098ca1684314 -->
<g id="node4" class="node" pointer-events="visible" data-name="76f8e777-cb60-45e5-ad1e-098ca1684314">

<polygon fill="none" stroke="black" points="167.69,-73.5 167.69,-109.5 351.47,-109.5 351.47,-73.5 167.69,-73.5" style=""/>
<text text-anchor="middle" x="191.25" y="-87.3" font-family="Times,serif" font-size="14.00" style="">x1w1</text>
<polyline fill="none" stroke="black" points="214.81,-73.5 214.81,-109.5" style=""/>
<text text-anchor="middle" x="244.39" y="-87.3" font-family="Times,serif" font-size="14.00" style="">-6.0000</text>
<polyline fill="none" stroke="black" points="273.97,-73.5 273.97,-109.5" style=""/>
<text text-anchor="middle" x="301.22" y="-87.3" font-family="Times,serif" font-size="14.00" style="">0.5000</text>
<polyline fill="none" stroke="black" points="328.47,-73.5 328.47,-109.5" style=""/>
<text text-anchor="middle" x="339.97" y="-87.3" font-family="Times,serif" font-size="14.00" style="">*</text>
</g>
<!-- 7fc4d226&#45;8fc6&#45;41f8&#45;9491&#45;c3a3167baaf2&#45;&gt;76f8e777&#45;cb60&#45;45e5&#45;ad1e&#45;098ca1684314 -->
<g id="edge3" class="edge" data-name="7fc4d226-8fc6-41f8-9491-c3a3167baaf2-&gt;76f8e777-cb60-45e5-ad1e-098ca1684314">

<path fill="none" stroke="black" d="M335.12,-146.67C322.39,-137.54 306.45,-126.11 292.5,-116.11" style=""/>
<polygon fill="black" stroke="black" points="294.61,-113.32 284.45,-110.33 290.53,-119.01 294.61,-113.32" style=""/>
</g>
<!-- 170d911d&#45;6346&#45;4775&#45;8a7a&#45;774df7356fc0 -->
<g id="node7" class="node" pointer-events="visible" data-name="170d911d-6346-4775-8a7a-774df7356fc0">

<polygon fill="none" stroke="black" points="369.03,-73.5 369.03,-109.5 548.14,-109.5 548.14,-73.5 369.03,-73.5" style=""/>
<text text-anchor="middle" x="392.58" y="-87.3" font-family="Times,serif" font-size="14.00" style="">x2w2</text>
<polyline fill="none" stroke="black" points="416.14,-73.5 416.14,-109.5" style=""/>
<text text-anchor="middle" x="443.39" y="-87.3" font-family="Times,serif" font-size="14.00" style="">0.0000</text>
<polyline fill="none" stroke="black" points="470.64,-73.5 470.64,-109.5" style=""/>
<text text-anchor="middle" x="497.89" y="-87.3" font-family="Times,serif" font-size="14.00" style="">0.5000</text>
<polyline fill="none" stroke="black" points="525.14,-73.5 525.14,-109.5" style=""/>
<text text-anchor="middle" x="536.64" y="-87.3" font-family="Times,serif" font-size="14.00" style="">*</text>
</g>
<!-- 7fc4d226&#45;8fc6&#45;41f8&#45;9491&#45;c3a3167baaf2&#45;&gt;170d911d&#45;6346&#45;4775&#45;8a7a&#45;774df7356fc0 -->
<g id="edge6" class="edge" data-name="7fc4d226-8fc6-41f8-9491-c3a3167baaf2-&gt;170d911d-6346-4775-8a7a-774df7356fc0">

<path fill="none" stroke="black" d="M382.28,-146.67C395.14,-137.54 411.24,-126.11 425.33,-116.11" style=""/>
<polygon fill="black" stroke="black" points="427.34,-118.97 433.47,-110.33 423.29,-113.26 427.34,-118.97" style=""/>
</g>
<!-- 0bdf9963&#45;03c3&#45;4d05&#45;9937&#45;0e0eba98ed0b -->
<g id="node5" class="node" pointer-events="visible" data-name="0bdf9963-03c3-4d05-9937-0e0eba98ed0b">

<polygon fill="none" stroke="black" points="0,-0.5 0,-36.5 163.16,-36.5 163.16,-0.5 0,-0.5" style=""/>
<text text-anchor="middle" x="15" y="-14.3" font-family="Times,serif" font-size="14.00" style="">x1</text>
<polyline fill="none" stroke="black" points="30,-0.5 30,-36.5" style=""/>
<text text-anchor="middle" x="57.25" y="-14.3" font-family="Times,serif" font-size="14.00" style="">2.0000</text>
<polyline fill="none" stroke="black" points="84.5,-0.5 84.5,-36.5" style=""/>
<text text-anchor="middle" x="114.08" y="-14.3" font-family="Times,serif" font-size="14.00" style="">-1.5000</text>
<polyline fill="none" stroke="black" points="143.66,-0.5 143.66,-36.5" style=""/>
<text text-anchor="middle" x="153.41" y="-14.3" font-family="Times,serif" font-size="14.00" style=""> </text>
</g>
<!-- 76f8e777&#45;cb60&#45;45e5&#45;ad1e&#45;098ca1684314&#45;&gt;0bdf9963&#45;03c3&#45;4d05&#45;9937&#45;0e0eba98ed0b -->
<g id="edge1" class="edge" data-name="76f8e777-cb60-45e5-ad1e-098ca1684314-&gt;0bdf9963-03c3-4d05-9937-0e0eba98ed0b">

<path fill="none" stroke="black" d="M217.4,-73.67C192.64,-63.8 161.12,-51.23 134.69,-40.68" style=""/>
<polygon fill="black" stroke="black" points="136.07,-37.47 125.48,-37.01 133.48,-43.97 136.07,-37.47" style=""/>
</g>
<!-- 567293ea&#45;033e&#45;46a7&#45;9925&#45;e96d0a7075d5 -->
<g id="node6" class="node" pointer-events="visible" data-name="567293ea-033e-46a7-9925-e96d0a7075d5">

<polygon fill="none" stroke="black" points="181.44,-0.5 181.44,-36.5 347.72,-36.5 347.72,-0.5 181.44,-0.5" style=""/>
<text text-anchor="middle" x="198" y="-14.3" font-family="Times,serif" font-size="14.00" style="">w1</text>
<polyline fill="none" stroke="black" points="214.56,-0.5 214.56,-36.5" style=""/>
<text text-anchor="middle" x="244.14" y="-14.3" font-family="Times,serif" font-size="14.00" style="">-3.0000</text>
<polyline fill="none" stroke="black" points="273.72,-0.5 273.72,-36.5" style=""/>
<text text-anchor="middle" x="300.97" y="-14.3" font-family="Times,serif" font-size="14.00" style="">1.0000</text>
<polyline fill="none" stroke="black" points="328.22,-0.5 328.22,-36.5" style=""/>
<text text-anchor="middle" x="337.97" y="-14.3" font-family="Times,serif" font-size="14.00" style=""> </text>
</g>
<!-- 76f8e777&#45;cb60&#45;45e5&#45;ad1e&#45;098ca1684314&#45;&gt;567293ea&#45;033e&#45;46a7&#45;9925&#45;e96d0a7075d5 -->
<g id="edge2" class="edge" data-name="76f8e777-cb60-45e5-ad1e-098ca1684314-&gt;567293ea-033e-46a7-9925-e96d0a7075d5">

<path fill="none" stroke="black" d="M260.77,-73.67C261.31,-65.89 261.98,-56.44 262.6,-47.62" style=""/>
<polygon fill="black" stroke="black" points="266.09,-47.94 263.3,-37.72 259.1,-47.44 266.09,-47.94" style=""/>
</g>
<!-- 36a5df9e&#45;3969&#45;4263&#45;ba65&#45;61eafc747ad5 -->
<g id="node8" class="node" pointer-events="visible" data-name="36a5df9e-3969-4263-ba65-61eafc747ad5">

<polygon fill="none" stroke="black" points="374.33,-0.5 374.33,-36.5 532.83,-36.5 532.83,-0.5 374.33,-0.5" style=""/>
<text text-anchor="middle" x="389.33" y="-14.3" font-family="Times,serif" font-size="14.00" style="">x2</text>
<polyline fill="none" stroke="black" points="404.33,-0.5 404.33,-36.5" style=""/>
<text text-anchor="middle" x="431.58" y="-14.3" font-family="Times,serif" font-size="14.00" style="">0.0000</text>
<polyline fill="none" stroke="black" points="458.83,-0.5 458.83,-36.5" style=""/>
<text text-anchor="middle" x="486.08" y="-14.3" font-family="Times,serif" font-size="14.00" style="">0.5000</text>
<polyline fill="none" stroke="black" points="513.33,-0.5 513.33,-36.5" style=""/>
<text text-anchor="middle" x="523.08" y="-14.3" font-family="Times,serif" font-size="14.00" style=""> </text>
</g>
<!-- 170d911d&#45;6346&#45;4775&#45;8a7a&#45;774df7356fc0&#45;&gt;36a5df9e&#45;3969&#45;4263&#45;ba65&#45;61eafc747ad5 -->
<g id="edge4" class="edge" data-name="170d911d-6346-4775-8a7a-774df7356fc0-&gt;36a5df9e-3969-4263-ba65-61eafc747ad5">

<path fill="none" stroke="black" d="M457.4,-73.67C456.85,-65.89 456.18,-56.44 455.56,-47.62" style=""/>
<polygon fill="black" stroke="black" points="459.06,-47.44 454.86,-37.72 452.08,-47.94 459.06,-47.44" style=""/>
</g>
<!-- dcd297c1&#45;7e6d&#45;47ff&#45;ba0e&#45;ea599e11cea1 -->
<g id="node9" class="node" pointer-events="visible" data-name="dcd297c1-7e6d-47ff-ba0e-ea599e11cea1">

<polygon fill="none" stroke="black" points="550.78,-0.5 550.78,-36.5 712.39,-36.5 712.39,-0.5 550.78,-0.5" style=""/>
<text text-anchor="middle" x="567.33" y="-14.3" font-family="Times,serif" font-size="14.00" style="">w2</text>
<polyline fill="none" stroke="black" points="583.89,-0.5 583.89,-36.5" style=""/>
<text text-anchor="middle" x="611.14" y="-14.3" font-family="Times,serif" font-size="14.00" style="">1.0000</text>
<polyline fill="none" stroke="black" points="638.39,-0.5 638.39,-36.5" style=""/>
<text text-anchor="middle" x="665.64" y="-14.3" font-family="Times,serif" font-size="14.00" style="">0.0000</text>
<polyline fill="none" stroke="black" points="692.89,-0.5 692.89,-36.5" style=""/>
<text text-anchor="middle" x="702.64" y="-14.3" font-family="Times,serif" font-size="14.00" style=""> </text>
</g>
<!-- 170d911d&#45;6346&#45;4775&#45;8a7a&#45;774df7356fc0&#45;&gt;dcd297c1&#45;7e6d&#45;47ff&#45;ba0e&#45;ea599e11cea1 -->
<g id="edge5" class="edge" data-name="170d911d-6346-4775-8a7a-774df7356fc0-&gt;dcd297c1-7e6d-47ff-ba0e-ea599e11cea1">

<path fill="none" stroke="black" d="M499.58,-73.67C523.64,-63.8 554.27,-51.23 579.97,-40.68" style=""/>
<polygon fill="black" stroke="black" points="580.95,-44.06 588.88,-37.03 578.3,-37.58 580.95,-44.06" style=""/>
</g>
</g>
</svg>